<svg xmlns="http://www.w3.org/2000/svg" viewBox="0 0 192 192" width="192" height="192">
  <!-- Background circle -->
  <circle cx="96" cy="96" r="90" fill="#4CAF50" stroke="#2E7D32" stroke-width="6"/>
  
  <!-- Apple shape -->
  <path d="M96 36c-24 0-42 18-42 42 0 30 18 54 42 54s42-24 42-54c0-24-18-42-42-42z" fill="#FF5722"/>
  
  <!-- Apple highlight -->
  <path d="M78 54c-12 0-21 9-21 21 0 15 9 27 21 27s21-12 21-27c0-12-9-21-21-21z" fill="#FF8A65"/>
  
  <!-- Leaf -->
  <path d="M102 36c0-6 6-12 12-12s12 6 12 12-6 12-12 12-12-6-12-12z" fill="#4CAF50"/>
  
  <!-- Stem -->
  <rect x="93" y="30" width="6" height="12" fill="#8D6E63"/>
  
  <!-- Sparkles for nutrition -->
  <circle cx="60" cy="60" r="4.5" fill="#FFF9C4"/>
  <circle cx="132" cy="72" r="3" fill="#FFF9C4"/>
  <circle cx="144" cy="120" r="4.5" fill="#FFF9C4"/>
  <circle cx="48" cy="132" r="3" fill="#FFF9C4"/>
</svg>
